<svg xmlns="http://www.w3.org/2000/svg" xmlns:xlink="http://www.w3.org/1999/xlink" width="6912" zoomAndPan="magnify" viewBox="0 0 5184 2592.000001" height="3456" preserveAspectRatio="xMidYMid meet" version="1.0"><defs><linearGradient x1="0" gradientTransform="matrix(0.749711, 0, 0, 0.749711, 0.999613, 0.0000999614)" y1="1728" x2="6911.999712" gradientUnits="userSpaceOnUse" y2="1728" id="8c5e97d3bd"><stop stop-opacity="1" stop-color="rgb(94.099426%, 87.5%, 75.698853%)" offset="0"/><stop stop-opacity="1" stop-color="rgb(94.068909%, 87.419128%, 75.582886%)" offset="0.015625"/><stop stop-opacity="1" stop-color="rgb(94.007874%, 87.260437%, 75.349426%)" offset="0.03125"/><stop stop-opacity="1" stop-color="rgb(93.946838%, 87.10022%, 75.117493%)" offset="0.046875"/><stop stop-opacity="1" stop-color="rgb(93.885803%, 86.941528%, 74.884033%)" offset="0.0625"/><stop stop-opacity="1" stop-color="rgb(93.824768%, 86.781311%, 74.650574%)" offset="0.078125"/><stop stop-opacity="1" stop-color="rgb(93.763733%, 86.62262%, 74.41864%)" offset="0.09375"/><stop stop-opacity="1" stop-color="rgb(93.702698%, 86.462402%, 74.185181%)" offset="0.109375"/><stop stop-opacity="1" stop-color="rgb(93.641663%, 86.303711%, 73.953247%)" offset="0.125"/><stop stop-opacity="1" stop-color="rgb(93.580627%, 86.143494%, 73.719788%)" offset="0.140625"/><stop stop-opacity="1" stop-color="rgb(93.519592%, 85.984802%, 73.486328%)" offset="0.15625"/><stop stop-opacity="1" stop-color="rgb(93.460083%, 85.826111%, 73.254395%)" offset="0.171875"/><stop stop-opacity="1" stop-color="rgb(93.399048%, 85.665894%, 73.020935%)" offset="0.1875"/><stop stop-opacity="1" stop-color="rgb(93.338013%, 85.507202%, 72.789001%)" offset="0.203125"/><stop stop-opacity="1" stop-color="rgb(93.276978%, 85.346985%, 72.555542%)" offset="0.21875"/><stop stop-opacity="1" stop-color="rgb(93.215942%, 85.188293%, 72.323608%)" offset="0.234375"/><stop stop-opacity="1" stop-color="rgb(93.154907%, 85.028076%, 72.090149%)" offset="0.25"/><stop stop-opacity="1" stop-color="rgb(93.093872%, 84.869385%, 71.856689%)" offset="0.265625"/><stop stop-opacity="1" stop-color="rgb(93.032837%, 84.709167%, 71.624756%)" offset="0.28125"/><stop stop-opacity="1" stop-color="rgb(92.971802%, 84.550476%, 71.391296%)" offset="0.296875"/><stop stop-opacity="1" stop-color="rgb(92.910767%, 84.391785%, 71.159363%)" offset="0.3125"/><stop stop-opacity="1" stop-color="rgb(92.849731%, 84.231567%, 70.925903%)" offset="0.328125"/><stop stop-opacity="1" stop-color="rgb(92.788696%, 84.072876%, 70.69397%)" offset="0.34375"/><stop stop-opacity="1" stop-color="rgb(92.727661%, 83.912659%, 70.46051%)" offset="0.359375"/><stop stop-opacity="1" stop-color="rgb(92.666626%, 83.753967%, 70.227051%)" offset="0.375"/><stop stop-opacity="1" stop-color="rgb(92.605591%, 83.59375%, 69.995117%)" offset="0.390625"/><stop stop-opacity="1" stop-color="rgb(92.544556%, 83.435059%, 69.761658%)" offset="0.40625"/><stop stop-opacity="1" stop-color="rgb(92.485046%, 83.274841%, 69.529724%)" offset="0.421875"/><stop stop-opacity="1" stop-color="rgb(92.424011%, 83.11615%, 69.296265%)" offset="0.4375"/><stop stop-opacity="1" stop-color="rgb(92.362976%, 82.957458%, 69.064331%)" offset="0.453125"/><stop stop-opacity="1" stop-color="rgb(92.301941%, 82.797241%, 68.830872%)" offset="0.46875"/><stop stop-opacity="1" stop-color="rgb(92.240906%, 82.63855%, 68.597412%)" offset="0.484375"/><stop stop-opacity="1" stop-color="rgb(92.179871%, 82.478333%, 68.365479%)" offset="0.5"/><stop stop-opacity="1" stop-color="rgb(92.118835%, 82.319641%, 68.132019%)" offset="0.515625"/><stop stop-opacity="1" stop-color="rgb(92.0578%, 82.159424%, 67.900085%)" offset="0.53125"/><stop stop-opacity="1" stop-color="rgb(91.996765%, 82.000732%, 67.666626%)" offset="0.546875"/><stop stop-opacity="1" stop-color="rgb(91.93573%, 81.840515%, 67.434692%)" offset="0.5625"/><stop stop-opacity="1" stop-color="rgb(91.874695%, 81.681824%, 67.201233%)" offset="0.578125"/><stop stop-opacity="1" stop-color="rgb(91.81366%, 81.521606%, 66.967773%)" offset="0.59375"/><stop stop-opacity="1" stop-color="rgb(91.752625%, 81.362915%, 66.73584%)" offset="0.609375"/><stop stop-opacity="1" stop-color="rgb(91.691589%, 81.204224%, 66.50238%)" offset="0.625"/><stop stop-opacity="1" stop-color="rgb(91.630554%, 81.044006%, 66.270447%)" offset="0.640625"/><stop stop-opacity="1" stop-color="rgb(91.571045%, 80.885315%, 66.036987%)" offset="0.65625"/><stop stop-opacity="1" stop-color="rgb(91.51001%, 80.725098%, 65.803528%)" offset="0.671875"/><stop stop-opacity="1" stop-color="rgb(91.448975%, 80.566406%, 65.571594%)" offset="0.6875"/><stop stop-opacity="1" stop-color="rgb(91.387939%, 80.406189%, 65.338135%)" offset="0.703125"/><stop stop-opacity="1" stop-color="rgb(91.326904%, 80.247498%, 65.106201%)" offset="0.71875"/><stop stop-opacity="1" stop-color="rgb(91.265869%, 80.08728%, 64.872742%)" offset="0.734375"/><stop stop-opacity="1" stop-color="rgb(91.204834%, 79.928589%, 64.640808%)" offset="0.75"/><stop stop-opacity="1" stop-color="rgb(91.143799%, 79.769897%, 64.407349%)" offset="0.765625"/><stop stop-opacity="1" stop-color="rgb(91.082764%, 79.60968%, 64.173889%)" offset="0.78125"/><stop stop-opacity="1" stop-color="rgb(91.021729%, 79.450989%, 63.941956%)" offset="0.796875"/><stop stop-opacity="1" stop-color="rgb(90.960693%, 79.290771%, 63.708496%)" offset="0.8125"/><stop stop-opacity="1" stop-color="rgb(90.899658%, 79.13208%, 63.476562%)" offset="0.828125"/><stop stop-opacity="1" stop-color="rgb(90.838623%, 78.971863%, 63.243103%)" offset="0.84375"/><stop stop-opacity="1" stop-color="rgb(90.777588%, 78.813171%, 63.011169%)" offset="0.859375"/><stop stop-opacity="1" stop-color="rgb(90.716553%, 78.652954%, 62.77771%)" offset="0.875"/><stop stop-opacity="1" stop-color="rgb(90.655518%, 78.494263%, 62.54425%)" offset="0.890625"/><stop stop-opacity="1" stop-color="rgb(90.596008%, 78.335571%, 62.312317%)" offset="0.90625"/><stop stop-opacity="1" stop-color="rgb(90.534973%, 78.175354%, 62.078857%)" offset="0.921875"/><stop stop-opacity="1" stop-color="rgb(90.473938%, 78.016663%, 61.846924%)" offset="0.9375"/><stop stop-opacity="1" stop-color="rgb(90.412903%, 77.856445%, 61.613464%)" offset="0.953125"/><stop stop-opacity="1" stop-color="rgb(90.351868%, 77.697754%, 61.381531%)" offset="0.96875"/><stop stop-opacity="1" stop-color="rgb(90.290833%, 77.537537%, 61.148071%)" offset="0.984375"/><stop stop-opacity="1" stop-color="rgb(90.229797%, 77.378845%, 60.914612%)" offset="1"/></linearGradient><clipPath id="77dffc33da"><path d="M 378.199219 1109.199219 L 1358.777344 1109.199219 L 1358.777344 2591 L 378.199219 2591 Z M 378.199219 1109.199219 " clip-rule="nonzero"/></clipPath><clipPath id="fccee3636d"><path d="M 1358.777344 2580.066406 C 1358.777344 2850.847656 1139.265625 3070.355469 868.488281 3070.355469 C 597.707031 3070.355469 378.199219 2850.847656 378.199219 2580.066406 L 378.199219 1599.488281 C 378.199219 1328.707031 597.707031 1109.199219 868.488281 1109.199219 C 1139.265625 1109.199219 1358.777344 1328.707031 1358.777344 1599.488281 Z M 1358.777344 2580.066406 " clip-rule="nonzero"/></clipPath><clipPath id="7c4533e028"><path d="M 1527.074219 1109.199219 L 2507.652344 1109.199219 L 2507.652344 2591 L 1527.074219 2591 Z M 1527.074219 1109.199219 " clip-rule="nonzero"/></clipPath><clipPath id="c66e83aef2"><path d="M 2507.652344 2580.066406 C 2507.652344 2850.847656 2288.140625 3070.355469 2017.363281 3070.355469 C 1746.582031 3070.355469 1527.074219 2850.847656 1527.074219 2580.066406 L 1527.074219 1599.488281 C 1527.074219 1328.707031 1746.582031 1109.199219 2017.363281 1109.199219 C 2288.140625 1109.199219 2507.652344 1328.707031 2507.652344 1599.488281 Z M 2507.652344 2580.066406 " clip-rule="nonzero"/></clipPath><clipPath id="d325a9341a"><path d="M 2675.949219 1109.199219 L 3656.527344 1109.199219 L 3656.527344 2591 L 2675.949219 2591 Z M 2675.949219 1109.199219 " clip-rule="nonzero"/></clipPath><clipPath id="55848a4775"><path d="M 3656.527344 2580.066406 C 3656.527344 2850.847656 3437.019531 3070.355469 3166.238281 3070.355469 C 2895.460938 3070.355469 2675.949219 2850.847656 2675.949219 2580.066406 L 2675.949219 1599.488281 C 2675.949219 1328.707031 2895.460938 1109.199219 3166.238281 1109.199219 C 3437.019531 1109.199219 3656.527344 1328.707031 3656.527344 1599.488281 Z M 3656.527344 2580.066406 " clip-rule="nonzero"/></clipPath><clipPath id="4efebd6d44"><path d="M 3825.210938 1109.199219 L 4805.792969 1109.199219 L 4805.792969 2591 L 3825.210938 2591 Z M 3825.210938 1109.199219 " clip-rule="nonzero"/></clipPath><clipPath id="f955a67067"><path d="M 4805.792969 2580.066406 C 4805.792969 2850.847656 4586.28125 3070.355469 4315.5 3070.355469 C 4044.722656 3070.355469 3825.210938 2850.847656 3825.210938 2580.066406 L 3825.210938 1599.488281 C 3825.210938 1328.707031 4044.722656 1109.199219 4315.5 1109.199219 C 4586.28125 1109.199219 4805.792969 1328.707031 4805.792969 1599.488281 Z M 4805.792969 2580.066406 " clip-rule="nonzero"/></clipPath><clipPath id="ce70062bcc"><path d="M 4842 2335 L 4949 2335 L 4949 2590.988281 L 4842 2590.988281 Z M 4842 2335 " clip-rule="nonzero"/></clipPath><clipPath id="0557f80e07"><path d="M 4606 754 L 5183 754 L 5183 2483 L 4606 2483 Z M 4606 754 " clip-rule="nonzero"/></clipPath><clipPath id="d035e201a2"><path d="M 3953 2335 L 4060 2335 L 4060 2590.988281 L 3953 2590.988281 Z M 3953 2335 " clip-rule="nonzero"/></clipPath><clipPath id="30de7e473e"><path d="M 1430 2090 L 1879 2090 L 1879 2591 L 1430 2591 Z M 1430 2090 " clip-rule="nonzero"/></clipPath><clipPath id="f303f21bc0"><path d="M 1339.675781 2404.585938 L 1654.570312 2089.691406 L 1969.464844 2404.585938 L 1654.570312 2719.480469 Z M 1339.675781 2404.585938 " clip-rule="nonzero"/></clipPath><clipPath id="512ff6f057"><path d="M 1339.675781 2404.585938 L 1654.570312 2089.691406 L 1969.464844 2404.585938 L 1654.570312 2719.480469 Z M 1339.675781 2404.585938 " clip-rule="nonzero"/></clipPath><clipPath id="3fa8cd55c6"><path d="M 3305 2090 L 3754 2090 L 3754 2591 L 3305 2591 Z M 3305 2090 " clip-rule="nonzero"/></clipPath><clipPath id="43963291f7"><path d="M 3214.699219 2404.585938 L 3529.59375 2089.691406 L 3844.488281 2404.585938 L 3529.59375 2719.480469 Z M 3214.699219 2404.585938 " clip-rule="nonzero"/></clipPath><clipPath id="77fe5c2ba1"><path d="M 3214.699219 2404.585938 L 3529.59375 2089.691406 L 3844.488281 2404.585938 L 3529.59375 2719.480469 Z M 3214.699219 2404.585938 " clip-rule="nonzero"/></clipPath><clipPath id="872cfbad55"><path d="M 235 2335 L 342 2335 L 342 2590.988281 L 235 2590.988281 Z M 235 2335 " clip-rule="nonzero"/></clipPath><clipPath id="fa8868641d"><path d="M 1 754 L 578 754 L 578 2483 L 1 2483 Z M 1 754 " clip-rule="nonzero"/></clipPath><clipPath id="bff8fd6cf8"><path d="M 1124 2335 L 1231 2335 L 1231 2590.988281 L 1124 2590.988281 Z M 1124 2335 " clip-rule="nonzero"/></clipPath></defs><path fill="#ffffff" d="M 1 0 L 5183 0 L 5183 2591 L 1 2591 Z M 1 0 " fill-opacity="1" fill-rule="nonzero"/><path fill="url(#8c5e97d3bd)" d="M 1 0 L 1 2591 L 5183 2591 L 5183 0 Z M 1 0 " fill-rule="nonzero"/><g clip-path="url(#77dffc33da)"><g clip-path="url(#fccee3636d)"><path fill="#2a2d2e" d="M 1358.777344 1109.199219 L 1358.777344 3070.355469 L 378.199219 3070.355469 L 378.199219 1109.199219 Z M 1358.777344 1109.199219 " fill-opacity="1" fill-rule="nonzero"/></g></g><g clip-path="url(#7c4533e028)"><g clip-path="url(#c66e83aef2)"><path fill="#2a2d2e" d="M 2507.652344 1109.199219 L 2507.652344 3070.355469 L 1527.074219 3070.355469 L 1527.074219 1109.199219 Z M 2507.652344 1109.199219 " fill-opacity="1" fill-rule="nonzero"/></g></g><g clip-path="url(#d325a9341a)"><g clip-path="url(#55848a4775)"><path fill="#2a2d2e" d="M 3656.527344 1109.199219 L 3656.527344 3070.355469 L 2675.949219 3070.355469 L 2675.949219 1109.199219 Z M 3656.527344 1109.199219 " fill-opacity="1" fill-rule="nonzero"/></g></g><g clip-path="url(#4efebd6d44)"><g clip-path="url(#f955a67067)"><path fill="#2a2d2e" d="M 4805.792969 1109.199219 L 4805.792969 3070.355469 L 3825.210938 3070.355469 L 3825.210938 1109.199219 Z M 4805.792969 1109.199219 " fill-opacity="1" fill-rule="nonzero"/></g></g><g clip-path="url(#ce70062bcc)"><path fill="#595959" d="M 4842.78125 2590.988281 L 4869.304688 2335.355469 L 4922.351562 2335.355469 L 4948.875 2590.988281 Z M 4842.78125 2590.988281 " fill-opacity="1" fill-rule="evenodd"/></g><g clip-path="url(#0557f80e07)"><path fill="#7c9d45" d="M 4647.59375 2319.878906 C 4691.351562 2432.875 4817.234375 2480.097656 4895.761719 2482.417969 C 4974.285156 2484.742188 5072.589844 2447.585938 5118.746094 2333.8125 C 5164.902344 2220.039062 5206.867188 2062.929688 5172.699219 1799.78125 C 5138.53125 1536.636719 5003.652344 754.164062 4913.738281 754.941406 C 4823.828125 755.714844 4677.574219 1543.609375 4633.214844 1804.433594 C 4588.859375 2065.257812 4603.835938 2206.882812 4647.59375 2319.878906 Z M 4647.59375 2319.878906 " fill-opacity="1" fill-rule="evenodd"/></g><g clip-path="url(#d035e201a2)"><path fill="#595959" d="M 3953.589844 2590.988281 L 3980.113281 2335.355469 L 4033.160156 2335.355469 L 4059.683594 2590.988281 Z M 3953.589844 2590.988281 " fill-opacity="1" fill-rule="evenodd"/></g><path fill="#7c9d45" d="M 3758.402344 2319.878906 C 3802.160156 2432.875 3928.042969 2480.097656 4006.570312 2482.417969 C 4085.09375 2484.742188 4183.398438 2447.585938 4229.554688 2333.8125 C 4275.710938 2220.039062 4317.675781 2062.929688 4283.507812 1799.78125 C 4249.339844 1536.636719 4114.460938 754.164062 4024.546875 754.941406 C 3934.636719 755.714844 3788.382812 1543.609375 3744.023438 1804.433594 C 3699.667969 2065.257812 3714.644531 2206.882812 3758.402344 2319.878906 Z M 3758.402344 2319.878906 " fill-opacity="1" fill-rule="evenodd"/><g clip-path="url(#30de7e473e)"><g clip-path="url(#f303f21bc0)"><g clip-path="url(#512ff6f057)"><path fill="#7c9d45" d="M 1814.128906 2559.753906 L 1809.589844 2564.296875 C 1723.945312 2649.9375 1585.023438 2649.9375 1499.320312 2564.230469 L 1494.777344 2559.691406 C 1409.132812 2474.046875 1409.132812 2335.125 1494.839844 2249.421875 L 1653.71875 2090.542969 C 1654.164062 2090.09375 1654.871094 2090.160156 1655.253906 2090.542969 L 1814.128906 2249.421875 C 1899.835938 2335.125 1899.835938 2474.046875 1814.128906 2559.753906 Z M 1814.128906 2559.753906 " fill-opacity="1" fill-rule="nonzero"/></g></g></g><g clip-path="url(#3fa8cd55c6)"><g clip-path="url(#43963291f7)"><g clip-path="url(#77fe5c2ba1)"><path fill="#7c9d45" d="M 3689.15625 2559.753906 L 3684.613281 2564.296875 C 3598.972656 2649.9375 3460.050781 2649.9375 3374.34375 2564.230469 L 3369.804688 2559.691406 C 3284.160156 2474.046875 3284.160156 2335.125 3369.867188 2249.421875 L 3528.742188 2090.542969 C 3529.191406 2090.09375 3529.894531 2090.160156 3530.277344 2090.542969 L 3689.15625 2249.421875 C 3774.863281 2335.125 3774.863281 2474.046875 3689.15625 2559.753906 Z M 3689.15625 2559.753906 " fill-opacity="1" fill-rule="nonzero"/></g></g></g><g clip-path="url(#872cfbad55)"><path fill="#595959" d="M 235.117188 2590.988281 L 261.640625 2335.355469 L 314.6875 2335.355469 L 341.210938 2590.988281 Z M 235.117188 2590.988281 " fill-opacity="1" fill-rule="evenodd"/></g><g clip-path="url(#fa8868641d)"><path fill="#7c9d45" d="M 39.925781 2319.878906 C 83.683594 2432.875 209.570312 2480.097656 288.09375 2482.417969 C 366.621094 2484.742188 464.921875 2447.585938 511.078125 2333.8125 C 557.234375 2220.039062 599.199219 2062.929688 565.03125 1799.78125 C 530.863281 1536.636719 395.988281 754.164062 306.074219 754.941406 C 216.160156 755.714844 69.90625 1543.609375 25.550781 1804.433594 C -18.808594 2065.257812 -3.828125 2206.882812 39.925781 2319.878906 Z M 39.925781 2319.878906 " fill-opacity="1" fill-rule="evenodd"/></g><g clip-path="url(#bff8fd6cf8)"><path fill="#595959" d="M 1124.308594 2590.988281 L 1150.832031 2335.355469 L 1203.878906 2335.355469 L 1230.402344 2590.988281 Z M 1124.308594 2590.988281 " fill-opacity="1" fill-rule="evenodd"/></g><path fill="#7c9d45" d="M 929.117188 2319.878906 C 972.875 2432.875 1098.761719 2480.097656 1177.285156 2482.417969 C 1255.8125 2484.742188 1354.113281 2447.585938 1400.269531 2333.8125 C 1446.425781 2220.039062 1488.390625 2062.929688 1454.222656 1799.78125 C 1420.054688 1536.636719 1285.179688 754.164062 1195.265625 754.941406 C 1105.351562 755.714844 959.097656 1543.609375 914.742188 1804.433594 C 870.382812 2065.257812 885.363281 2206.882812 929.117188 2319.878906 Z M 929.117188 2319.878906 " fill-opacity="1" fill-rule="evenodd"/></svg>