<svg xmlns="http://www.w3.org/2000/svg" xmlns:xlink="http://www.w3.org/1999/xlink" width="6912" zoomAndPan="magnify" viewBox="0 0 5184 2592.000001" height="3456" preserveAspectRatio="xMidYMid meet" version="1.0"><defs><linearGradient x1="0" gradientTransform="matrix(0.749711, 0, 0, 0.749711, 0.999613, 0.0000999614)" y1="1728" x2="6911.999712" gradientUnits="userSpaceOnUse" y2="1728" id="7003141ab9"><stop stop-opacity="1" stop-color="rgb(94.099426%, 87.5%, 75.698853%)" offset="0"/><stop stop-opacity="1" stop-color="rgb(94.068909%, 87.419128%, 75.582886%)" offset="0.015625"/><stop stop-opacity="1" stop-color="rgb(94.007874%, 87.260437%, 75.349426%)" offset="0.03125"/><stop stop-opacity="1" stop-color="rgb(93.946838%, 87.10022%, 75.117493%)" offset="0.046875"/><stop stop-opacity="1" stop-color="rgb(93.885803%, 86.941528%, 74.884033%)" offset="0.0625"/><stop stop-opacity="1" stop-color="rgb(93.824768%, 86.781311%, 74.650574%)" offset="0.078125"/><stop stop-opacity="1" stop-color="rgb(93.763733%, 86.62262%, 74.41864%)" offset="0.09375"/><stop stop-opacity="1" stop-color="rgb(93.702698%, 86.462402%, 74.185181%)" offset="0.109375"/><stop stop-opacity="1" stop-color="rgb(93.641663%, 86.303711%, 73.953247%)" offset="0.125"/><stop stop-opacity="1" stop-color="rgb(93.580627%, 86.143494%, 73.719788%)" offset="0.140625"/><stop stop-opacity="1" stop-color="rgb(93.519592%, 85.984802%, 73.486328%)" offset="0.15625"/><stop stop-opacity="1" stop-color="rgb(93.460083%, 85.826111%, 73.254395%)" offset="0.171875"/><stop stop-opacity="1" stop-color="rgb(93.399048%, 85.665894%, 73.020935%)" offset="0.1875"/><stop stop-opacity="1" stop-color="rgb(93.338013%, 85.507202%, 72.789001%)" offset="0.203125"/><stop stop-opacity="1" stop-color="rgb(93.276978%, 85.346985%, 72.555542%)" offset="0.21875"/><stop stop-opacity="1" stop-color="rgb(93.215942%, 85.188293%, 72.323608%)" offset="0.234375"/><stop stop-opacity="1" stop-color="rgb(93.154907%, 85.028076%, 72.090149%)" offset="0.25"/><stop stop-opacity="1" stop-color="rgb(93.093872%, 84.869385%, 71.856689%)" offset="0.265625"/><stop stop-opacity="1" stop-color="rgb(93.032837%, 84.709167%, 71.624756%)" offset="0.28125"/><stop stop-opacity="1" stop-color="rgb(92.971802%, 84.550476%, 71.391296%)" offset="0.296875"/><stop stop-opacity="1" stop-color="rgb(92.910767%, 84.391785%, 71.159363%)" offset="0.3125"/><stop stop-opacity="1" stop-color="rgb(92.849731%, 84.231567%, 70.925903%)" offset="0.328125"/><stop stop-opacity="1" stop-color="rgb(92.788696%, 84.072876%, 70.69397%)" offset="0.34375"/><stop stop-opacity="1" stop-color="rgb(92.727661%, 83.912659%, 70.46051%)" offset="0.359375"/><stop stop-opacity="1" stop-color="rgb(92.666626%, 83.753967%, 70.227051%)" offset="0.375"/><stop stop-opacity="1" stop-color="rgb(92.605591%, 83.59375%, 69.995117%)" offset="0.390625"/><stop stop-opacity="1" stop-color="rgb(92.544556%, 83.435059%, 69.761658%)" offset="0.40625"/><stop stop-opacity="1" stop-color="rgb(92.485046%, 83.274841%, 69.529724%)" offset="0.421875"/><stop stop-opacity="1" stop-color="rgb(92.424011%, 83.11615%, 69.296265%)" offset="0.4375"/><stop stop-opacity="1" stop-color="rgb(92.362976%, 82.957458%, 69.064331%)" offset="0.453125"/><stop stop-opacity="1" stop-color="rgb(92.301941%, 82.797241%, 68.830872%)" offset="0.46875"/><stop stop-opacity="1" stop-color="rgb(92.240906%, 82.63855%, 68.597412%)" offset="0.484375"/><stop stop-opacity="1" stop-color="rgb(92.179871%, 82.478333%, 68.365479%)" offset="0.5"/><stop stop-opacity="1" stop-color="rgb(92.118835%, 82.319641%, 68.132019%)" offset="0.515625"/><stop stop-opacity="1" stop-color="rgb(92.0578%, 82.159424%, 67.900085%)" offset="0.53125"/><stop stop-opacity="1" stop-color="rgb(91.996765%, 82.000732%, 67.666626%)" offset="0.546875"/><stop stop-opacity="1" stop-color="rgb(91.93573%, 81.840515%, 67.434692%)" offset="0.5625"/><stop stop-opacity="1" stop-color="rgb(91.874695%, 81.681824%, 67.201233%)" offset="0.578125"/><stop stop-opacity="1" stop-color="rgb(91.81366%, 81.521606%, 66.967773%)" offset="0.59375"/><stop stop-opacity="1" stop-color="rgb(91.752625%, 81.362915%, 66.73584%)" offset="0.609375"/><stop stop-opacity="1" stop-color="rgb(91.691589%, 81.204224%, 66.50238%)" offset="0.625"/><stop stop-opacity="1" stop-color="rgb(91.630554%, 81.044006%, 66.270447%)" offset="0.640625"/><stop stop-opacity="1" stop-color="rgb(91.571045%, 80.885315%, 66.036987%)" offset="0.65625"/><stop stop-opacity="1" stop-color="rgb(91.51001%, 80.725098%, 65.803528%)" offset="0.671875"/><stop stop-opacity="1" stop-color="rgb(91.448975%, 80.566406%, 65.571594%)" offset="0.6875"/><stop stop-opacity="1" stop-color="rgb(91.387939%, 80.406189%, 65.338135%)" offset="0.703125"/><stop stop-opacity="1" stop-color="rgb(91.326904%, 80.247498%, 65.106201%)" offset="0.71875"/><stop stop-opacity="1" stop-color="rgb(91.265869%, 80.08728%, 64.872742%)" offset="0.734375"/><stop stop-opacity="1" stop-color="rgb(91.204834%, 79.928589%, 64.640808%)" offset="0.75"/><stop stop-opacity="1" stop-color="rgb(91.143799%, 79.769897%, 64.407349%)" offset="0.765625"/><stop stop-opacity="1" stop-color="rgb(91.082764%, 79.60968%, 64.173889%)" offset="0.78125"/><stop stop-opacity="1" stop-color="rgb(91.021729%, 79.450989%, 63.941956%)" offset="0.796875"/><stop stop-opacity="1" stop-color="rgb(90.960693%, 79.290771%, 63.708496%)" offset="0.8125"/><stop stop-opacity="1" stop-color="rgb(90.899658%, 79.13208%, 63.476562%)" offset="0.828125"/><stop stop-opacity="1" stop-color="rgb(90.838623%, 78.971863%, 63.243103%)" offset="0.84375"/><stop stop-opacity="1" stop-color="rgb(90.777588%, 78.813171%, 63.011169%)" offset="0.859375"/><stop stop-opacity="1" stop-color="rgb(90.716553%, 78.652954%, 62.77771%)" offset="0.875"/><stop stop-opacity="1" stop-color="rgb(90.655518%, 78.494263%, 62.54425%)" offset="0.890625"/><stop stop-opacity="1" stop-color="rgb(90.596008%, 78.335571%, 62.312317%)" offset="0.90625"/><stop stop-opacity="1" stop-color="rgb(90.534973%, 78.175354%, 62.078857%)" offset="0.921875"/><stop stop-opacity="1" stop-color="rgb(90.473938%, 78.016663%, 61.846924%)" offset="0.9375"/><stop stop-opacity="1" stop-color="rgb(90.412903%, 77.856445%, 61.613464%)" offset="0.953125"/><stop stop-opacity="1" stop-color="rgb(90.351868%, 77.697754%, 61.381531%)" offset="0.96875"/><stop stop-opacity="1" stop-color="rgb(90.290833%, 77.537537%, 61.148071%)" offset="0.984375"/><stop stop-opacity="1" stop-color="rgb(90.229797%, 77.378845%, 60.914612%)" offset="1"/></linearGradient><clipPath id="38c0538b38"><path d="M 378.164062 1109.191406 L 1358.742188 1109.191406 L 1358.742188 2591 L 378.164062 2591 Z M 378.164062 1109.191406 " clip-rule="nonzero"/></clipPath><clipPath id="ed9467c9ce"><path d="M 1358.742188 2580.058594 C 1358.742188 2850.839844 1139.230469 3070.347656 868.453125 3070.347656 C 597.671875 3070.347656 378.164062 2850.839844 378.164062 2580.058594 L 378.164062 1599.480469 C 378.164062 1328.703125 597.671875 1109.191406 868.453125 1109.191406 C 1139.230469 1109.191406 1358.742188 1328.703125 1358.742188 1599.480469 Z M 1358.742188 2580.058594 " clip-rule="nonzero"/></clipPath><clipPath id="52df5f45f3"><path d="M 1527.039062 1109.191406 L 2507.617188 1109.191406 L 2507.617188 2591 L 1527.039062 2591 Z M 1527.039062 1109.191406 " clip-rule="nonzero"/></clipPath><clipPath id="8376fc58a8"><path d="M 2507.617188 2580.058594 C 2507.617188 2850.839844 2288.105469 3070.347656 2017.328125 3070.347656 C 1746.546875 3070.347656 1527.039062 2850.839844 1527.039062 2580.058594 L 1527.039062 1599.480469 C 1527.039062 1328.703125 1746.546875 1109.191406 2017.328125 1109.191406 C 2288.105469 1109.191406 2507.617188 1328.703125 2507.617188 1599.480469 Z M 2507.617188 2580.058594 " clip-rule="nonzero"/></clipPath><clipPath id="47bd27e36d"><path d="M 2675.914062 1109.191406 L 3656.492188 1109.191406 L 3656.492188 2591 L 2675.914062 2591 Z M 2675.914062 1109.191406 " clip-rule="nonzero"/></clipPath><clipPath id="9d803f7b13"><path d="M 3656.492188 2580.058594 C 3656.492188 2850.839844 3436.984375 3070.347656 3166.203125 3070.347656 C 2895.425781 3070.347656 2675.914062 2850.839844 2675.914062 2580.058594 L 2675.914062 1599.480469 C 2675.914062 1328.703125 2895.425781 1109.191406 3166.203125 1109.191406 C 3436.984375 1109.191406 3656.492188 1328.703125 3656.492188 1599.480469 Z M 3656.492188 2580.058594 " clip-rule="nonzero"/></clipPath><clipPath id="4208d5a5c1"><path d="M 3825.175781 1109.191406 L 4805.757812 1109.191406 L 4805.757812 2591 L 3825.175781 2591 Z M 3825.175781 1109.191406 " clip-rule="nonzero"/></clipPath><clipPath id="6f653e823b"><path d="M 4805.757812 2580.058594 C 4805.757812 2850.839844 4586.246094 3070.347656 4315.46875 3070.347656 C 4044.6875 3070.347656 3825.175781 2850.839844 3825.175781 2580.058594 L 3825.175781 1599.480469 C 3825.175781 1328.703125 4044.6875 1109.191406 4315.46875 1109.191406 C 4586.246094 1109.191406 4805.757812 1328.703125 4805.757812 1599.480469 Z M 4805.757812 2580.058594 " clip-rule="nonzero"/></clipPath><clipPath id="b4f10b1bad"><path d="M 4842 2335 L 4949 2335 L 4949 2589.714844 L 4842 2589.714844 Z M 4842 2335 " clip-rule="nonzero"/></clipPath><clipPath id="f6a68cebc0"><path d="M 4606 754 L 5183 754 L 5183 2483 L 4606 2483 Z M 4606 754 " clip-rule="nonzero"/></clipPath><clipPath id="616b9ffcc9"><path d="M 4205 2335 L 4312 2335 L 4312 2589.714844 L 4205 2589.714844 Z M 4205 2335 " clip-rule="nonzero"/></clipPath><clipPath id="87835b00b7"><path d="M 1220 2090 L 1668 2090 L 1668 2591 L 1220 2591 Z M 1220 2090 " clip-rule="nonzero"/></clipPath><clipPath id="e1bab88f06"><path d="M 1129.210938 2404.566406 L 1444.105469 2089.671875 L 1759 2404.566406 L 1444.105469 2719.460938 Z M 1129.210938 2404.566406 " clip-rule="nonzero"/></clipPath><clipPath id="b177fb0775"><path d="M 1129.210938 2404.566406 L 1444.105469 2089.671875 L 1759 2404.566406 L 1444.105469 2719.460938 Z M 1129.210938 2404.566406 " clip-rule="nonzero"/></clipPath><clipPath id="9e084a3ff2"><path d="M 3516 2090 L 3964 2090 L 3964 2591 L 3516 2591 Z M 3516 2090 " clip-rule="nonzero"/></clipPath><clipPath id="70c33aa6c9"><path d="M 3425.179688 2404.566406 L 3740.074219 2089.671875 L 4054.96875 2404.566406 L 3740.074219 2719.460938 Z M 3425.179688 2404.566406 " clip-rule="nonzero"/></clipPath><clipPath id="b01806eae8"><path d="M 3425.179688 2404.566406 L 3740.074219 2089.671875 L 4054.96875 2404.566406 L 3740.074219 2719.460938 Z M 3425.179688 2404.566406 " clip-rule="nonzero"/></clipPath><clipPath id="36e644e657"><path d="M 235 2335 L 342 2335 L 342 2589.714844 L 235 2589.714844 Z M 235 2335 " clip-rule="nonzero"/></clipPath><clipPath id="2a87eaa90b"><path d="M 1 754 L 578 754 L 578 2483 L 1 2483 Z M 1 754 " clip-rule="nonzero"/></clipPath></defs><path fill="#ffffff" d="M 1 0 L 5183 0 L 5183 2591 L 1 2591 Z M 1 0 " fill-opacity="1" fill-rule="nonzero"/><path fill="url(#7003141ab9)" d="M 1 0 L 1 2591 L 5183 2591 L 5183 0 Z M 1 0 " fill-rule="nonzero"/><g clip-path="url(#38c0538b38)"><g clip-path="url(#ed9467c9ce)"><path fill="#2a2d2e" d="M 1358.742188 1109.191406 L 1358.742188 3070.347656 L 378.164062 3070.347656 L 378.164062 1109.191406 Z M 1358.742188 1109.191406 " fill-opacity="1" fill-rule="nonzero"/></g></g><g clip-path="url(#52df5f45f3)"><g clip-path="url(#8376fc58a8)"><path fill="#2a2d2e" d="M 2507.617188 1109.191406 L 2507.617188 3070.347656 L 1527.039062 3070.347656 L 1527.039062 1109.191406 Z M 2507.617188 1109.191406 " fill-opacity="1" fill-rule="nonzero"/></g></g><g clip-path="url(#47bd27e36d)"><g clip-path="url(#9d803f7b13)"><path fill="#2a2d2e" d="M 3656.492188 1109.191406 L 3656.492188 3070.347656 L 2675.914062 3070.347656 L 2675.914062 1109.191406 Z M 3656.492188 1109.191406 " fill-opacity="1" fill-rule="nonzero"/></g></g><g clip-path="url(#4208d5a5c1)"><g clip-path="url(#6f653e823b)"><path fill="#2a2d2e" d="M 4805.757812 1109.191406 L 4805.757812 3070.347656 L 3825.175781 3070.347656 L 3825.175781 1109.191406 Z M 4805.757812 1109.191406 " fill-opacity="1" fill-rule="nonzero"/></g></g><g clip-path="url(#b4f10b1bad)"><path fill="#595959" d="M 4842.769531 2590.957031 L 4869.292969 2335.328125 L 4922.335938 2335.328125 L 4948.859375 2590.957031 Z M 4842.769531 2590.957031 " fill-opacity="1" fill-rule="evenodd"/></g><g clip-path="url(#f6a68cebc0)"><path fill="#7c9d45" d="M 4647.585938 2319.855469 C 4691.339844 2432.847656 4817.222656 2480.066406 4895.746094 2482.390625 C 4974.269531 2484.710938 5072.570312 2447.554688 5118.722656 2333.785156 C 5164.878906 2220.015625 5206.84375 2062.910156 5172.675781 1799.773438 C 5138.507812 1536.632812 5003.636719 754.183594 4913.726562 754.957031 C 4823.8125 755.734375 4677.566406 1543.605469 4633.207031 1804.421875 C 4588.851562 2065.238281 4603.828125 2206.859375 4647.585938 2319.855469 Z M 4647.585938 2319.855469 " fill-opacity="1" fill-rule="evenodd"/></g><g clip-path="url(#616b9ffcc9)"><path fill="#595959" d="M 4205.832031 2590.957031 L 4232.355469 2335.328125 L 4285.398438 2335.328125 L 4311.921875 2590.957031 Z M 4205.832031 2590.957031 " fill-opacity="1" fill-rule="evenodd"/></g><path fill="#7c9d45" d="M 4010.648438 2319.855469 C 4054.40625 2432.847656 4180.285156 2480.066406 4258.808594 2482.390625 C 4337.332031 2484.710938 4435.632812 2447.554688 4481.789062 2333.785156 C 4527.941406 2220.015625 4569.90625 2062.910156 4535.738281 1799.773438 C 4501.570312 1536.632812 4366.699219 754.183594 4276.789062 754.957031 C 4186.875 755.734375 4040.628906 1543.605469 3996.269531 1804.421875 C 3951.914062 2065.238281 3966.890625 2206.859375 4010.648438 2319.855469 Z M 4010.648438 2319.855469 " fill-opacity="1" fill-rule="evenodd"/><g clip-path="url(#87835b00b7)"><g clip-path="url(#e1bab88f06)"><g clip-path="url(#b177fb0775)"><path fill="#7c9d45" d="M 1603.625 2559.71875 L 1599.082031 2564.261719 C 1513.449219 2649.894531 1374.539062 2649.894531 1288.839844 2564.195312 L 1284.300781 2559.65625 C 1198.664062 2474.023438 1198.664062 2335.113281 1284.363281 2249.414062 L 1443.226562 2090.550781 C 1443.671875 2090.105469 1444.378906 2090.167969 1444.761719 2090.550781 L 1603.625 2249.414062 C 1689.320312 2335.113281 1689.320312 2474.023438 1603.625 2559.71875 Z M 1603.625 2559.71875 " fill-opacity="1" fill-rule="nonzero"/></g></g></g><g clip-path="url(#9e084a3ff2)"><g clip-path="url(#70c33aa6c9)"><g clip-path="url(#b01806eae8)"><path fill="#7c9d45" d="M 3899.59375 2559.71875 L 3895.050781 2564.261719 C 3809.417969 2649.894531 3670.507812 2649.894531 3584.808594 2564.195312 L 3580.269531 2559.65625 C 3494.632812 2474.023438 3494.632812 2335.113281 3580.332031 2249.414062 L 3739.195312 2090.550781 C 3739.644531 2090.105469 3740.347656 2090.167969 3740.730469 2090.550781 L 3899.59375 2249.414062 C 3985.292969 2335.113281 3985.292969 2474.023438 3899.59375 2559.71875 Z M 3899.59375 2559.71875 " fill-opacity="1" fill-rule="nonzero"/></g></g></g><g clip-path="url(#36e644e657)"><path fill="#595959" d="M 235.101562 2590.957031 L 261.625 2335.328125 L 314.671875 2335.328125 L 341.191406 2590.957031 Z M 235.101562 2590.957031 " fill-opacity="1" fill-rule="evenodd"/></g><g clip-path="url(#2a87eaa90b)"><path fill="#7c9d45" d="M 39.917969 2319.855469 C 83.675781 2432.847656 209.558594 2480.066406 288.082031 2482.390625 C 366.601562 2484.710938 464.902344 2447.554688 511.058594 2333.785156 C 557.214844 2220.015625 599.175781 2062.910156 565.007812 1799.773438 C 530.84375 1536.632812 395.96875 754.183594 306.058594 754.957031 C 216.148438 755.734375 69.898438 1543.605469 25.542969 1804.421875 C -18.8125 2065.238281 -3.835938 2206.859375 39.917969 2319.855469 Z M 39.917969 2319.855469 " fill-opacity="1" fill-rule="evenodd"/></g></svg>